#!OML:ASF I:\Actors\actors\Patient Classification 1\Patient 1\Session 1\Subject1.ASF
:FULLY-SPECIFIED
:DEGREES
919
root 0.791814 17.8041 9.00419 27.0612 2.11714 -9.81786
lowerback 7.59293 0.469819 6.58488
upperback -5.049 1.69397 3.13027
thorax -9.59743 0.509875 -0.612134
lowerneck -17.803 -3.81384 -0.308131
upperneck -2.22713 -5.29969 7.77242
head 2.64272 -2.33385 2.22289
rclavicle -2.75814e-015 6.91771e-014
rhumerus 56.4156 9.00854 -83.5595
rradius 20.4492
rwrist 68.7385
rhand -19.5178 -42.4092
rfingers 7.12502
rthumb 6.80528 287.72
lclavicle -2.75814e-015 6.91771e-014
lhumerus 54.6652 -8.10512 90.0934
lradius 13.8351
lwrist -62.218
lhand -53.8492 -41.1745
lfingers 7.12502
lthumb -26.279 -12.9745
rfemur -28.0617 35.3863 11.3294
rtibia -0.15045
rfoot -11.2153 -38.8785
rtoes 17.8264
lfemur -26.7876 -52.1316 16.4717
ltibia -5.66844
lfoot -41.0003 57.9356
ltoes 31.944
920
root 0.785438 17.817 9.00705 27.795 2.14934 -9.85507
lowerback 7.77046 0.493696 6.59937
upperback -5.03741 1.74935 3.18477
thorax -9.68895 0.535539 -0.572543
lowerneck -17.8751 -3.8178 -0.343376
upperneck -2.29473 -5.29643 7.78651
head 2.63405 -2.33269 2.23372
rclavicle -6.08778e-015 2.03754e-015
rhumerus 58.6964 9.48051 -81.8428
rradius 20.1479
rwrist 66.8642
rhand -19.2293 -42.7267
rfingers 7.12502
rthumb 7.08377 287.412
lclavicle -6.08778e-015 2.03754e-015
lhumerus 56.369 -5.10065 95.6112
lradius 12.8658
lwrist -66.7768
lhand -53.89 -40.6524
lfingers 7.12502
lthumb -26.318 -12.4583
rfemur -28.7701 35.2854 10.9364
rtibia -0.497267
rfoot -11.1572 -38.8773
rtoes 18.7725
lfemur -27.6583 -51.6416 17.3583
ltibia -5.89738
lfoot -41.614 57.5521
ltoes 32.9026
921
root 0.77757 17.8299 9.0096 28.465 2.14308 -9.82338
lowerback 7.98537 0.5149 6.5383
upperback -5.01616 1.79019 3.18667
thorax -9.79216 0.556898 -0.545757
lowerneck -17.9935 -3.75966 -0.177528
upperneck -2.30766 -5.24627 7.58651
head 2.63393 -2.31478 2.13843
rclavicle 5.91384e-015 -3.34952e-014
rhumerus 60.3349 8.50107 -83.728
rradius 19.5603
rwrist 69.0117
rhand -19.3074 -42.4455
rfingers 7.12502
rthumb 7.00838 287.691
lclavicle 5.91384e-015 -3.34952e-014
lhumerus 58.1794 -2.72891 100.547
lradius 12.1541
lwrist -71.2218
lhand -53.7538 -39.6156
lfingers 7.12502
lthumb -26.1877 -11.402
rfemur -29.4365 35.1878 10.4973
rtibia -0.798872
rfoot -11.0965 -38.8672
rtoes 19.5727
lfemur -28.4121 -51.1933 18.056
ltibia -6.13984
lfoot -42.8138 56.9549
ltoes 34.3677
922
root 0.770798 17.8425 9.01057 29.0823 2.2003 -9.79697
lowerback 8.18238 0.487214 6.53245
upperback -4.96737 1.76925 3.20245
thorax -9.85729 0.546587 -0.524932
lowerneck -18.0036 -3.62314 0.026272
upperneck -2.44414 -5.09035 7.39786
head 2.56627 -2.24998 2.05014
rclavicle 7.1811e-015 -3.17559e-014
rhumerus 62.1498 8.239 -84.1262
rradius 19.1009
rwrist 69.7288
rhand -18.9157 -42.3673
rfingers 7.12502
rthumb 7.38647 287.782
lclavicle 7.1811e-015 -3.17559e-014
lhumerus 60.0022 -1.18995 104.127
lradius 11.6864
lwrist -74.8528
lhand -53.564 -37.6932
lfingers 7.12502
lthumb -26.0059 -9.4528
rfemur -30.0315 35.038 10.1291
rtibia -1.1051
rfoot -11.1633 -38.852
rtoes 20.9459
lfemur -29.2338 -50.8008 18.7978
ltibia -6.29449
lfoot -43.7863 56.4766
ltoes 35.4153
923
root 0.766181 17.8544 9.01024 29.6146 2.35673 -9.761
lowerback 8.414 0.420318 6.62385
upperback -4.90858 1.71027 3.21584
thorax -9.93252 0.511103 -0.554713
lowerneck -17.8713 -3.48167 0.150393
upperneck -2.66673 -4.90862 7.33724
head 2.45087 -2.17234 2.02307
rclavicle -2.06239e-015 -1.75427e-014
rhumerus 63.5504 6.83032 -88.186
rradius 18.2341
rwrist 74.2483
rhand -18.4758 -41.3788
rfingers 7.12502
rthumb 7.81114 288.785
lclavicle -2.06239e-015 -1.75427e-014
lhumerus 61.6527 -0.49573 106.163
lradius 11.4506
lwrist -77.2283
lhand -53.6011 -35.9368
lfingers 7.12502
lthumb -26.0415 -7.70168
rfemur -30.6141 34.7993 9.86608
rtibia -1.27628
rfoot -10.8106 -39.0055
rtoes 21.6406
lfemur -30.0566 -50.5307 19.5545
ltibia -6.41387
lfoot -44.6276 56.0389
ltoes 36.3518
924
root 0.76277 17.8661 9.00883 30.1175 2.50654 -9.6526
lowerback 8.68226 0.36351 6.68569
upperback -4.86274 1.66318 3.19756
thorax -10.0428 0.480965 -0.60394
lowerneck -17.8645 -3.37572 0.296915
upperneck -2.7715 -4.78593 7.20347
head 2.39826 -2.12088 1.96133
rclavicle -2.31087e-015 -2.96686e-014
rhumerus 65.0479 6.64995 -88.4821
rradius 18.0002
rwrist 74.9967
rhand -18.0609 -41.0293
rfingers 7.12502
rthumb 8.21158 289.15
lclavicle -2.31087e-015 -2.96686e-014
lhumerus 63.1673 -0.237776 107.439
lradius 11.3434
lwrist -78.8722
lhand -53.5544 -34.5727
lfingers 7.12502
lthumb -25.9967 -6.33098
rfemur -31.1666 34.5357 9.54785
rtibia -1.42995
rfoot -10.3709 -39.2048
rtoes 21.677
lfemur -30.7864 -50.3256 20.176
ltibia -6.59146
lfoot -45.6777 55.4289
ltoes 37.7918
